<svg width="153" height="50" viewBox="0 0 153 50" fill="none" xmlns="http://www.w3.org/2000/svg">
<g id="Logo 1" clip-path="url(#clip0_7_443)">
<g id="Group">
<path id="Vector" d="M23.4459 3.20901C24.0621 3.55413 24.7456 3.76678 25.3231 4.21397" stroke="#7F7F7F" stroke-width="2"/>
<path id="Vector_2" d="M25.3231 4.21396C25.4939 4.27107 25.7313 4.26257 25.8307 4.49953C25.8453 4.53436 25.8666 4.55542 25.8946 4.56272C26.3936 4.69234 26.8978 4.69558 27.4074 4.57244" stroke="#90949C" stroke-width="2"/>
<path id="Vector_3" d="M27.9438 4.95523L28.0925 4.99652C28.1765 5.02012 28.1757 5.03467 28.0902 5.04017C27.9915 5.04725 27.8929 5.06023 27.7943 5.07911C24.3787 5.75393 20.9262 6.32022 17.5389 7.25341C12.5935 8.61486 8.57192 13.6229 7.32374 21.0283C7.22773 21.5978 7.13198 22.3709 7.03649 23.3477C6.60836 27.7129 6.32583 32.1275 6.00788 36.5139C5.96119 37.1635 6.07976 37.523 6.00788 38.1655C6.00788 38.1702 5.82878 38.4614 5.82657 38.4648C5.82435 38.4681 5.82135 38.4699 5.81822 38.4699C5.81509 38.4699 5.81209 38.4681 5.80987 38.4648C5.80766 38.4614 5.80641 38.4569 5.80641 38.4522C5.7487 37.8718 5.5871 37.3669 5.32162 36.9374" stroke="#90949C" stroke-width="2"/>
<path id="Vector_4" d="M2.67428 33.275C2.69842 33.1649 2.69365 33.0612 2.65997 32.964" stroke="#90949C" stroke-width="2"/>
<path id="Vector_5" d="M2.66001 32.964C0.99576 21.6555 4.77883 10.9509 11.6875 5.54338" stroke="#F2BC9C" stroke-width="2"/>
<path id="Vector_6" d="M11.6875 5.54338C13.0419 4.47645 14.3661 3.86886 15.835 3.25034" stroke="#7F7F7F" stroke-width="2"/>
<path id="Vector_7" d="M15.8351 3.25033L15.958 3.18106" stroke="#90949C" stroke-width="2"/>
<path id="Vector_8" d="M15.958 3.18106L16.3814 3" stroke="#7F7F7F" stroke-width="2"/>
<path id="Vector_9" d="M31.1492 8.44037C30.8608 8.83733 30.5619 9.3234 30.2527 9.89859C27.883 14.3048 25.0941 19.0598 22.5476 23.9412C22.5325 23.9712 22.5123 23.9902 22.487 23.9983L19.2823 25.0057C19.2713 25.0091 19.2598 25.0079 19.2492 25.0021C19.2387 24.9964 19.2295 24.9864 19.2228 24.9733C19.216 24.9603 19.212 24.9447 19.2113 24.9285C19.2105 24.9123 19.2129 24.8961 19.2183 24.8818C20.3879 21.7993 21.5467 18.737 22.695 15.695C22.9559 15.0023 22.3986 14.8225 22.1411 15.2612C21.0652 17.0937 19.9313 18.852 18.8387 20.6529C16.9036 23.8408 14.97 27.0302 13.0378 30.2213C13.0024 30.2796 12.9704 30.3716 12.9418 30.4971C12.9328 30.5368 12.9365 30.5737 12.9527 30.6077C13.0375 30.7892 13.1626 30.8516 13.3282 30.7948C15.9473 29.9029 18.8005 28.8826 21.8877 27.7338" stroke="#90949C" stroke-width="2"/>
<path id="Vector_10" d="M21.8876 27.7338C22.2558 28.04 22.6256 28.324 22.9971 28.5856C23.2132 28.7379 23.2867 28.9846 23.2177 29.3257C23.0746 30.0329 22.6966 31.8448 22.2909 32.2713C21.7886 32.8003 21.279 33.3127 20.7621 33.8085C18.0964 36.3685 15.4287 38.9264 12.7591 41.4824" stroke="#85523A" stroke-width="2"/>
<path id="Vector_11" d="M12.7591 41.4824L9.76645 44.2688C9.76029 44.2743 9.75515 44.282 9.75145 44.291C9.74775 44.3 9.7456 44.3102 9.74519 44.3207C9.74478 44.3312 9.74611 44.3416 9.74908 44.3512C9.75205 44.3608 9.75656 44.3692 9.76224 44.3757C12.5385 47.5704 16.3822 49.8173 19.9582 48.8452C21.9673 48.2991 23.8917 47.2075 25.7313 45.5702C30.2518 41.548 33.0264 34.8621 33.7672 27.2903C34.2504 22.3469 34.0736 17.3124 32.3504 12.8673" stroke="#90949C" stroke-width="2"/>
<path id="Vector_12" d="M26.3333 47.1767C25.9157 47.137 25.5434 47.2719 25.2162 47.5814C25.1921 47.6041 25.1657 47.6178 25.1371 47.6227C24.9378 47.6583 24.7627 47.7697 24.6118 47.9569C24.5742 48.0039 24.5795 48.0188 24.6278 48.0018C24.8264 47.933 25.0234 47.8588 25.2187 47.7795C25.2215 47.7786 25.2252 47.7807 25.2297 47.7855C25.2369 47.792 25.2367 47.7969 25.2288 47.8001C25.1048 47.852 25.0021 47.9346 24.9207 48.048" stroke="#12151D" stroke-width="2"/>
<path id="Vector_13" d="M26.4157 4.49954L27.2676 4.53549" stroke="#12151D" stroke-width="2"/>
<path id="Vector_14" d="M25.3424 4.0645L25.3727 4.15807C25.3817 4.18642 25.3755 4.20303 25.3542 4.20789C25.3435 4.20951 25.3332 4.21154 25.3231 4.21397" stroke="#12151D" stroke-width="2"/>
<path id="Vector_15" d="M11.6875 5.54338L11.6118 5.43766C11.5888 5.40525 11.5629 5.39918 11.5343 5.41943L10.6075 6.09507C10.5951 6.10398 10.582 6.10763 10.5679 6.10601C10.5483 6.1052 10.5284 6.10965 10.5082 6.11937C10.4815 6.13356 10.4589 6.16057 10.4442 6.19593C10.3875 6.33689 10.3044 6.41831 10.195 6.44018C10.1692 6.44504 10.1479 6.46165 10.131 6.49C10.0384 6.64474 9.93096 6.76585 9.80862 6.85334C9.55439 7.03562 9.42896 7.18995 9.22946 7.40382C9.20813 7.4265 9.18961 7.45364 9.1739 7.48524C9.1363 7.55977 9.08579 7.60311 9.02237 7.61526C8.99722 7.61999 8.97366 7.63615 8.95503 7.66144C8.67807 8.04908 8.33798 8.34194 8.07113 8.68827C7.69569 9.17677 7.27057 9.63489 6.92796 10.1112C6.68552 10.4483 6.44532 10.7889 6.20737 11.1332C6.18773 11.1608 6.17314 11.1932 6.1636 11.2304C6.14171 11.3131 6.08896 11.3467 6.00534 11.3313" stroke="#743D1D" stroke-width="2"/>
<path id="Vector_16" d="M11.8096 5.08403C11.8545 5.14722 11.9075 5.13507 11.9687 5.04758C11.9849 5.02328 11.9819 5.00667 11.9594 4.99776C11.9493 4.99371 11.9361 4.99411 11.9198 4.99897" stroke="#7F7F7F" stroke-width="2"/>
<path id="Vector_17" d="M15.8351 3.25033C15.8065 3.24466 15.7879 3.23655 15.7795 3.22602C15.7745 3.22035 15.7742 3.21428 15.7787 3.20779C15.7843 3.20131 15.7879 3.1924 15.7896 3.18106" stroke="#12151D" stroke-width="2"/>
<path id="Vector_18" d="M15.958 3.18249C15.9215 3.18422 15.8937 3.17645 15.8746 3.15919" stroke="#12151D" stroke-width="2"/>
<path id="Vector_19" d="M2.65909 32.964C2.63847 32.9834 2.63005 33.0296 2.63385 33.1025" stroke="#85523A" stroke-width="2"/>
<path id="Vector_20" d="M2 29.0632C2.00421 28.7728 2.05893 28.4811 2.05303 28.2077C2.01992 26.6183 2.04939 25.0317 2.14142 23.4479C2.16415 23.0675 2.23234 22.6701 2.18351 22.2096" stroke="#743D1D" stroke-width="2"/>
<path id="Vector_21" d="M25.8846 47.4173C25.7123 47.47 25.57 47.5878 25.4578 47.7709" stroke="#12151D" stroke-width="2"/>
<path id="Vector_22" d="M30.9631 9.91925C30.9794 10.1096 31.0313 10.2271 31.1189 10.2717" stroke="#90949C" stroke-width="2"/>
<path id="Vector_23" d="M12.7591 41.4824C12.8478 41.4718 12.9395 41.4216 13.0344 41.3317C15.5929 38.8973 18.1478 36.4552 20.699 34.0054C21.0391 33.6785 21.3884 33.3188 21.7109 33.015C22.1503 32.6018 22.5535 32.0574 22.9635 31.6807C24.321 30.4315 25.6769 29.1758 27.0311 27.9137C27.1674 27.7873 27.2859 27.6289 27.3863 27.4385C27.8386 26.5855 28.3308 25.7162 28.8628 24.8307C28.8706 24.818 28.8761 24.8028 28.8789 24.7864C28.8818 24.77 28.8819 24.7528 28.8793 24.7363C28.8766 24.7199 28.8713 24.7045 28.8638 24.6916C28.8563 24.6786 28.8467 24.6684 28.8359 24.6618C28.3064 24.341 27.0816 25.1017 26.606 25.3496C24.8208 26.2829 23.248 27.0776 21.8876 27.7338" stroke="#F2BC9C" stroke-width="2"/>
<path id="Vector_24" d="M22.7421 24.081C23.5581 24.5006 24.3755 24.8684 25.1942 25.1844C25.2818 25.2184 25.3531 25.2245 25.4081 25.2026C26.7566 24.6744 28.092 24.0834 29.4142 23.4296C29.7465 23.2652 29.9942 23.1137 30.1575 22.9751C30.258 22.8893 30.2765 22.7767 30.2131 22.6373C30.1991 22.6057 30.1789 22.5891 30.1525 22.5875C30.0391 22.5826 29.9095 22.5944 29.7636 22.6227C27.3543 23.0918 25.0495 23.618 22.7463 24.0287C22.7419 24.0291 22.7379 24.0317 22.7347 24.036C22.7316 24.0403 22.7296 24.0461 22.7291 24.0523C22.7286 24.0585 22.7296 24.0648 22.732 24.07C22.7343 24.0753 22.7379 24.0791 22.7421 24.081Z" stroke="#F2BC9C" stroke-width="2"/>
</g>
<path id="Vector_25" d="M23.844 1.1764C24.5187 1.53681 25.2671 1.75889 25.8994 2.22589C26.0865 2.28554 26.3464 2.27665 26.4552 2.52412C26.4712 2.5605 26.4945 2.58249 26.5252 2.59011C27.0715 2.72547 27.6236 2.72885 28.1815 2.60026L29.0479 2.50508L29.2221 2.5495C29.3204 2.57488 29.3195 2.59053 29.2193 2.59645C29.1038 2.60407 28.9883 2.61803 28.8728 2.63833C24.8726 3.36422 20.8292 3.97335 16.8623 4.97716C11.0704 6.44163 6.36057 11.8287 4.89877 19.7944C4.78633 20.4069 4.67419 21.2386 4.56236 22.2893C4.06096 26.9848 3.73007 31.7335 3.35771 36.4518C3.30303 37.1506 3.23359 37.8456 3.14941 38.5368C3.14941 38.5419 3.14795 38.5467 3.14536 38.5503C3.14277 38.5538 3.13925 38.5558 3.13559 38.5558C3.13192 38.5558 3.1284 38.5538 3.12581 38.5503C3.12322 38.5467 3.12176 38.5419 3.12176 38.5368C3.05417 37.9124 2.86492 37.3693 2.554 36.9074C1.96105 35.5757 1.47686 34.1316 1.10142 32.5749C1.12785 32.4598 1.12262 32.3515 1.08576 32.25C-0.736419 20.4404 3.40564 9.26143 10.9699 3.61422C12.4529 2.5 13.9027 1.86549 15.5111 1.21955L15.6456 1.14721L16.1092 0.958126C16.5 0.852796 16.9037 0.714472 17.2844 0.652289C19.18 0.344336 21.0685 0.422593 22.95 0.88706C22.9703 0.892137 22.9942 0.910326 23.0219 0.941629C23.0452 0.967856 23.0717 0.984776 23.1012 0.99239L23.844 1.1764Z" fill="#FDFEFE"/>
<path id="Vector_26" d="M16.1092 0.958115L15.6456 1.1472C15.6057 1.14889 15.5753 1.14128 15.5544 1.12436L16.1092 0.958115Z" fill="black"/>
<path id="Vector_27" d="M15.5544 1.12437C15.5753 1.14129 15.6057 1.1489 15.6456 1.14721L15.5111 1.21955C15.4797 1.21362 15.4594 1.20516 15.4502 1.19416C15.4447 1.18824 15.4444 1.1819 15.4493 1.17513C15.4554 1.16836 15.4594 1.15905 15.4613 1.14721C15.4969 1.10491 15.528 1.0973 15.5544 1.12437Z" fill="#232A3A"/>
<path id="Vector_28" d="M15.4613 1.1472C15.4595 1.15905 15.4555 1.16835 15.4493 1.17512C15.4444 1.18189 15.4447 1.18823 15.4502 1.19416C15.4595 1.20515 15.4797 1.21361 15.5111 1.21954C13.9027 1.86548 12.4529 2.49999 10.9699 3.61421L10.887 3.5038C10.8618 3.46996 10.8335 3.46361 10.8022 3.48476L9.7874 4.19035C9.77388 4.19965 9.75944 4.20346 9.74408 4.20177C9.72257 4.20092 9.70076 4.20558 9.67864 4.21573C9.6494 4.23054 9.62469 4.25875 9.60859 4.29568C9.54653 4.44289 9.45559 4.52791 9.33577 4.55075C9.30751 4.55583 9.28416 4.57317 9.26572 4.60279C9.16434 4.76438 9.04667 4.89086 8.91272 4.98223C8.63437 5.17258 8.49704 5.33375 8.2786 5.5571C8.25525 5.58079 8.23497 5.60913 8.21776 5.64213C8.1766 5.71996 8.12129 5.76522 8.05186 5.77791C8.02432 5.78285 7.99852 5.79973 7.97813 5.82614C7.67489 6.23096 7.30253 6.5368 7.01035 6.89847C6.59928 7.40862 6.13383 7.88705 5.7587 8.38451C5.49326 8.73646 5.23027 9.09221 4.96974 9.45177C4.94823 9.48053 4.93226 9.51438 4.92181 9.55329C4.89785 9.63959 4.84009 9.6747 4.74854 9.65862C6.53538 6.90905 8.65372 4.73434 11.1036 3.13451C11.1527 3.2005 11.2108 3.18781 11.2778 3.09644C11.2956 3.07106 11.2922 3.05372 11.2676 3.04441C11.2566 3.04018 11.2421 3.0406 11.2243 3.04568C12.605 2.20938 13.9728 1.52664 15.4613 1.1472Z" fill="black"/>
<path id="Vector_29" d="M23.844 1.17639C24.5636 1.34898 25.2557 1.64678 25.9206 2.06979L25.9538 2.16751C25.9636 2.19712 25.9568 2.21446 25.9335 2.21954C25.9218 2.22123 25.9104 2.22335 25.8994 2.22588C25.2671 1.75888 24.5187 1.5368 23.844 1.17639Z" fill="black"/>
<path id="Vector_30" d="M32.2784 6.63959C31.9625 7.05414 31.6353 7.56175 31.2968 8.16243C28.7022 12.764 25.6487 17.7297 22.8606 22.8274C22.844 22.8587 22.8219 22.8786 22.7942 22.8871L19.2854 23.9391C19.2733 23.9426 19.2607 23.9413 19.2492 23.9353C19.2376 23.9293 19.2276 23.9189 19.2202 23.9053C19.2128 23.8916 19.2085 23.8754 19.2076 23.8584C19.2067 23.8415 19.2094 23.8246 19.2153 23.8096C20.4958 20.5905 21.7647 17.3925 23.0219 14.2157C23.3076 13.4924 22.6974 13.3046 22.4154 13.7627C21.2375 15.6764 19.996 17.5127 18.7996 19.3934C16.681 22.7225 14.5639 26.0533 12.4483 29.3858C12.4096 29.4467 12.3746 29.5427 12.3432 29.6739C12.3334 29.7153 12.3374 29.7538 12.3552 29.7893C12.448 29.9788 12.585 30.044 12.7663 29.9848C15.6339 29.0533 18.7579 27.9877 22.138 26.7881C22.5411 27.1079 22.946 27.4044 23.3528 27.6777C23.5893 27.8367 23.6698 28.0943 23.5942 28.4505C23.4376 29.1891 23.0237 31.0812 22.5795 31.5266C22.0295 32.0791 21.4716 32.6142 20.9057 33.132C17.987 35.8054 15.0662 38.4767 12.1432 41.1459L8.86662 44.0558C8.85987 44.0616 8.85424 44.0696 8.85019 44.079C8.84614 44.0885 8.84379 44.0991 8.84334 44.11C8.84289 44.121 8.84435 44.1319 8.84759 44.1419C8.85084 44.1519 8.85579 44.1607 8.86201 44.1675C11.9017 47.5038 16.1102 49.8503 20.0255 48.835C22.2252 48.2648 24.3322 47.1248 26.3464 45.415C31.2959 41.2145 34.3337 34.2322 35.1448 26.3249C35.6739 21.1624 35.4803 15.9048 33.5936 11.2627C34.1122 12.1713 34.4572 12.8807 34.6287 13.3909C34.7436 13.7326 34.8296 13.9632 34.8868 14.0825C34.8877 14.0845 34.889 14.0862 34.8906 14.0873C34.8921 14.0883 34.8939 14.0887 34.8956 14.0885C34.8974 14.0882 34.899 14.0873 34.9004 14.0858C34.9018 14.0842 34.9028 14.0822 34.9033 14.0799L34.9144 14.0292C34.915 14.0283 34.9156 14.0283 34.9162 14.0292L34.9374 14.0444C34.946 14.0512 34.9504 14.0613 34.9504 14.0749C34.9457 14.5 35.1411 14.7906 35.213 15.0901C35.2812 15.3769 35.3396 15.6671 35.3882 15.9607C35.3912 15.9801 35.4001 15.9898 35.4149 15.9898C35.4229 15.9898 35.4315 15.9898 35.4407 15.9898C35.4481 15.9898 35.4524 15.9949 35.4536 16.0051C35.563 16.7217 35.7169 17.4175 35.9154 18.0926C36.0364 18.5038 36.1209 18.8689 36.1688 19.1878C36.4564 21.0977 36.6988 22.8706 36.6702 24.6865C36.6628 25.1167 36.7688 25.736 36.6933 26.1624C36.6496 26.412 36.634 26.6345 36.6463 26.8299C36.6653 27.1328 36.6727 27.3156 36.6684 27.3782C36.1624 35.3871 33.3273 41.8223 28.3981 46.0977C27.9852 46.4568 27.4644 46.7284 27.0054 47.0926C26.5483 47.0512 26.1406 47.192 25.7823 47.5152C25.7559 47.5389 25.727 47.5533 25.6957 47.5584C25.4776 47.5956 25.2859 47.7119 25.1206 47.9074C25.0794 47.9564 25.0852 47.9721 25.1381 47.9543C25.3556 47.8824 25.5713 47.805 25.7851 47.7221C25.7882 47.7212 25.7922 47.7233 25.7971 47.7284C25.8051 47.7352 25.8048 47.7403 25.7962 47.7436C25.6604 47.7978 25.5479 47.8841 25.4588 48.0025C25.0984 48.17 24.7583 48.4556 24.386 48.552C23.939 48.6688 23.6966 49.0863 23.22 48.9759C23.1905 48.9691 23.1617 48.9733 23.1334 48.9886C22.4544 49.3464 21.8019 49.4949 21.1757 49.434C20.8077 49.3985 20.4958 49.4167 20.2402 49.4886C18.9932 49.8401 17.8153 49.7183 16.5323 49.486C16.0499 49.3981 15.5716 49.2745 15.0972 49.1155C14.6133 48.953 14.1184 48.9086 13.6492 48.7272C13.3328 48.6053 13.013 48.5034 12.6898 48.4213C12.6597 48.4137 12.6326 48.3964 12.6087 48.3693C12.3451 48.0685 12.158 48.231 11.91 48.0838C11.6636 47.9391 11.4145 47.8037 11.1625 47.6777C10.8685 47.5305 10.4574 47.4619 10.1155 47.2386C9.21409 46.648 8.52467 46.1248 8.04724 45.6688C7.56335 45.2056 7.35413 45.4848 6.84167 45.8794C5.72459 46.7415 4.62624 47.6447 3.54664 48.5888C3.29686 48.8084 2.71805 49.4213 2.41297 49.2373C2.38409 49.2195 2.36719 49.1891 2.36227 49.1459C2.33831 48.959 2.32787 48.8338 2.33094 48.7703C2.47472 46.0977 2.75215 43.2995 2.98165 39.8299C3.00561 39.4695 2.95215 38.9607 2.90515 38.6167C2.90023 38.5812 2.90146 38.5461 2.90883 38.5114C2.94017 38.3617 2.87381 38.2525 2.85814 38.1421C2.80038 37.731 2.699 37.3194 2.55399 36.9074C2.8649 37.3693 3.05415 37.9124 3.12174 38.5368C3.12174 38.5418 3.1232 38.5467 3.12579 38.5503C3.12839 38.5538 3.1319 38.5558 3.13557 38.5558C3.13924 38.5558 3.14275 38.5538 3.14535 38.5503C3.14794 38.5467 3.1494 38.5418 3.1494 38.5368C3.23358 37.8456 3.30301 37.1506 3.3577 36.4518C3.73006 31.7335 4.06094 26.9848 4.56234 22.2893C4.67417 21.2386 4.78631 20.4069 4.89876 19.7944C6.36055 11.8287 11.0704 6.44162 16.8622 4.97715C20.8292 3.97334 24.8726 3.36421 28.8727 2.63832C28.9883 2.61801 29.1038 2.60405 29.2193 2.59644C29.3195 2.59052 29.3204 2.57487 29.2221 2.54949L29.0479 2.50507C29.3788 2.53933 29.6636 2.38959 29.9401 2.33248C30.0728 2.30456 30.2073 2.26649 30.3438 2.21827C30.3608 2.21209 30.3788 2.2137 30.3951 2.22286C30.4114 2.23202 30.4251 2.24822 30.4341 2.26903C30.458 2.32402 30.4854 2.31683 30.5161 2.24745C30.5238 2.23065 30.5343 2.21667 30.5468 2.20672C30.5594 2.19677 30.5735 2.19115 30.588 2.19035C31.6989 2.11251 32.8031 1.956 33.9005 1.72081C34.1273 1.67258 34.3417 1.70981 34.5439 1.83248C34.5573 1.8408 34.5685 1.85442 34.5762 1.8716C34.584 1.88878 34.5878 1.90874 34.5872 1.92893C34.5774 2.34517 34.4929 2.6857 34.3337 2.9505C33.4753 4.38028 32.7902 5.60998 32.2784 6.63959Z" fill="#232A3A"/>
<path id="Vector_31" d="M25.9206 2.06979L27.0958 2.52411L28.0285 2.56091C28.0685 2.59898 28.1195 2.61209 28.1815 2.60025C27.6236 2.72885 27.0715 2.72546 26.5252 2.5901C26.4945 2.58248 26.4712 2.56049 26.4552 2.52411C26.3464 2.27665 26.0865 2.28553 25.8994 2.22589C25.9105 2.22335 25.9218 2.22123 25.9335 2.21954C25.9569 2.21446 25.9636 2.19712 25.9538 2.16751L25.9206 2.06979Z" fill="#232A3A"/>
<path id="Vector_32" d="M28.0285 2.56092L27.0957 2.52412C27.4202 2.47166 27.7311 2.48393 28.0285 2.56092Z" fill="black"/>
<path id="Vector_33" d="M11.2243 3.04569C11.2421 3.04061 11.2565 3.04019 11.2676 3.04442C11.2922 3.05372 11.2956 3.07107 11.2777 3.09645C11.2108 3.18782 11.1527 3.20051 11.1035 3.13452C11.1294 3.08207 11.1696 3.05246 11.2243 3.04569Z" fill="#FDFEFE"/>
<path id="Vector_34" d="M10.9699 3.61421C3.40565 9.26142 -0.736413 20.4404 1.08576 32.25C1.06241 32.2703 1.05289 32.3185 1.05719 32.3947C0.747503 31.0038 0.516159 29.5977 0.363159 28.1764C0.367768 27.8731 0.427677 27.5685 0.421225 27.283C0.384972 25.6231 0.417231 23.9662 0.518003 22.3122C0.542888 21.915 0.617545 21.5 0.564087 21.019C1.20804 16.7407 2.60286 12.9539 4.74854 9.65862C4.8401 9.6747 4.89786 9.63959 4.92182 9.55329C4.93227 9.51438 4.94824 9.48054 4.96975 9.45177C5.23028 9.09221 5.49327 8.73646 5.75871 8.38451C6.13384 7.88705 6.59929 7.40862 7.01036 6.89847C7.30254 6.5368 7.6749 6.23096 7.97813 5.82614C7.99853 5.79973 8.02433 5.78285 8.05187 5.77791C8.1213 5.76522 8.17661 5.71996 8.21777 5.64213C8.23498 5.60913 8.25526 5.58079 8.2786 5.5571C8.49704 5.33375 8.63438 5.17258 8.91272 4.98223C9.04668 4.89086 9.16435 4.76438 9.26573 4.60279C9.28416 4.57318 9.30751 4.55583 9.33578 4.55076C9.4556 4.52791 9.54654 4.44289 9.6086 4.29568C9.6247 4.25875 9.64941 4.23054 9.67865 4.21573C9.70077 4.20558 9.72258 4.20093 9.74409 4.20177C9.75945 4.20346 9.77389 4.19966 9.78741 4.19035L10.8022 3.48477C10.8335 3.46362 10.8618 3.46996 10.887 3.5038L10.9699 3.61421Z" fill="#E77A39"/>
<path id="Vector_35" d="M32.2784 6.63959C32.091 7.04483 31.9991 7.46742 32.0028 7.90735C32.0034 7.95135 32.0126 7.99153 32.0305 8.02791C32.0556 8.08037 32.0704 8.1324 32.0747 8.184C32.0925 8.38282 32.1494 8.50549 32.2452 8.55202C32.7515 9.40735 33.201 10.3109 33.5936 11.2627C35.4803 15.9048 35.6739 21.1624 35.1448 26.3249C34.3337 34.2322 31.2959 41.2145 26.3464 45.415C24.3322 47.1248 22.2252 48.2648 20.0255 48.835C16.1102 49.8502 11.9017 47.5038 8.86201 44.1675C8.85579 44.1607 8.85085 44.1519 8.8476 44.1419C8.84435 44.1319 8.84289 44.121 8.84334 44.11C8.84379 44.0991 8.84614 44.0885 8.85019 44.079C8.85424 44.0696 8.85988 44.0616 8.86662 44.0558L12.1432 41.1459C12.2403 41.1349 12.3408 41.0825 12.4446 40.9886C15.2459 38.4463 18.0432 35.8959 20.8366 33.3376C21.2089 32.9962 21.5914 32.6206 21.9444 32.3033C22.4256 31.8718 22.867 31.3033 23.3159 30.9099C24.8023 29.6053 26.2868 28.294 27.7695 26.9759C27.9188 26.8439 28.0485 26.6785 28.1584 26.4797C28.6537 25.5888 29.1926 24.681 29.7751 23.7563C29.7835 23.743 29.7896 23.7272 29.7927 23.71C29.7958 23.6929 29.796 23.675 29.7931 23.6578C29.7902 23.6405 29.7844 23.6245 29.7761 23.611C29.7679 23.5975 29.7574 23.5868 29.7456 23.5799C29.1659 23.2449 27.8248 24.0393 27.304 24.2982C25.3495 25.2728 23.6274 26.1028 22.138 26.7881C18.7579 27.9877 15.634 29.0533 12.7663 29.9848C12.585 30.044 12.448 29.9788 12.3552 29.7893C12.3374 29.7538 12.3334 29.7153 12.3432 29.6739C12.3746 29.5427 12.4096 29.4467 12.4483 29.3858C14.5639 26.0533 16.681 22.7225 18.7996 19.3934C19.996 17.5127 21.2375 15.6764 22.4154 13.7627C22.6975 13.3046 23.3076 13.4924 23.0219 14.2157C21.7647 17.3925 20.4959 20.5905 19.2153 23.8096C19.2094 23.8246 19.2067 23.8415 19.2076 23.8584C19.2085 23.8754 19.2128 23.8916 19.2202 23.9053C19.2276 23.9189 19.2376 23.9293 19.2492 23.9353C19.2607 23.9413 19.2733 23.9426 19.2854 23.9391L22.7942 22.887C22.8219 22.8786 22.844 22.8587 22.8606 22.8274C25.6487 17.7297 28.7022 12.764 31.2968 8.16243C31.6354 7.56175 31.9626 7.05414 32.2784 6.63959ZM23.0735 22.9733C23.9669 23.4116 24.8619 23.7957 25.7584 24.1256C25.8542 24.1612 25.9323 24.1675 25.9925 24.1447C27.469 23.5931 28.9311 22.9759 30.3788 22.2931C30.7425 22.1214 31.0138 21.9632 31.1926 21.8185C31.3026 21.7288 31.3229 21.6112 31.2535 21.4657C31.2381 21.4327 31.216 21.4154 31.1871 21.4137C31.063 21.4086 30.921 21.4209 30.7613 21.4505C28.1234 21.9403 25.5998 22.4898 23.0781 22.9188C23.0734 22.9192 23.0689 22.9219 23.0654 22.9264C23.062 22.9309 23.0598 22.9369 23.0593 22.9434C23.0587 22.9499 23.0598 22.9565 23.0624 22.9619C23.065 22.9674 23.069 22.9714 23.0735 22.9733Z" fill="#FDFEFE"/>
<path id="Vector_36" d="M32.0747 8.18401C32.1601 8.29568 32.217 8.41835 32.2452 8.55203C32.1494 8.50549 32.0925 8.38282 32.0747 8.18401Z" fill="#232A3A"/>
<path id="Vector_37" d="M149.605 11.8972H152.938C152.944 11.8972 152.949 11.8991 152.954 11.9026C152.958 11.9061 152.962 11.9112 152.965 11.9173C152.968 11.9235 152.97 11.9306 152.97 11.9379C152.971 11.9453 152.97 11.9526 152.968 11.9594L146.595 32.2386C146.593 32.2465 146.589 32.2532 146.583 32.2579C146.578 32.2627 146.572 32.2652 146.566 32.2652H143.224C143.217 32.2652 143.211 32.2627 143.206 32.2579C143.201 32.2532 143.197 32.2465 143.194 32.2386L136.836 11.9581C136.834 11.9514 136.833 11.944 136.834 11.9366C136.834 11.9293 136.836 11.9222 136.839 11.9161C136.842 11.9099 136.846 11.9048 136.851 11.9013C136.855 11.8978 136.861 11.896 136.866 11.8959L140.5 11.8985C140.506 11.8985 140.512 11.901 140.518 11.9058C140.523 11.9105 140.527 11.9172 140.53 11.9251L144.989 26.3299C144.991 26.3378 144.995 26.3445 145.001 26.3492C145.006 26.3539 145.012 26.3564 145.018 26.3564C145.024 26.3564 145.031 26.3539 145.036 26.3492C145.041 26.3445 145.045 26.3378 145.048 26.3299L149.576 11.9239C149.578 11.9159 149.583 11.9092 149.588 11.9045C149.593 11.8998 149.599 11.8972 149.605 11.8972Z" fill="white"/>
<path id="Vector_38" d="M47.7231 19.8921H54.3528C54.366 19.8921 54.3787 19.8849 54.388 19.8721C54.3973 19.8592 54.4026 19.8418 54.4026 19.8236V11.9657C54.4026 11.9567 54.4038 11.9478 54.4064 11.9395C54.4089 11.9312 54.4125 11.9236 54.4171 11.9173C54.4218 11.9109 54.4273 11.9059 54.4333 11.9024C54.4393 11.899 54.4458 11.8972 54.4523 11.8972H57.7861C57.7926 11.8972 57.7991 11.899 57.8051 11.9024C57.8112 11.9059 57.8166 11.9109 57.8213 11.9173C57.8259 11.9236 57.8296 11.9312 57.8321 11.9395C57.8346 11.9478 57.8358 11.9567 57.8358 11.9657V32.1967C57.8358 32.2149 57.8306 32.2323 57.8213 32.2451C57.8119 32.258 57.7993 32.2652 57.7861 32.2652H54.4523C54.4391 32.2652 54.4265 32.258 54.4171 32.2451C54.4078 32.2323 54.4026 32.2149 54.4026 32.1967V23.9581C54.4026 23.9399 54.3973 23.9225 54.388 23.9097C54.3787 23.8968 54.366 23.8896 54.3528 23.8896H47.724C47.7108 23.8896 47.6982 23.8968 47.6888 23.9097C47.6795 23.9225 47.6743 23.9399 47.6743 23.9581V32.1967C47.6743 32.2149 47.669 32.2323 47.6597 32.2451C47.6503 32.258 47.6377 32.2652 47.6245 32.2652H44.2907C44.2775 32.2652 44.2649 32.258 44.2555 32.2451C44.2462 32.2323 44.241 32.2149 44.241 32.1967V11.9657C44.241 11.9567 44.2423 11.9478 44.2448 11.9395C44.2473 11.9312 44.2509 11.9236 44.2555 11.9173C44.2602 11.9109 44.2657 11.9059 44.2717 11.9024C44.2777 11.899 44.2842 11.8972 44.2907 11.8972H47.6245C47.6377 11.8972 47.6503 11.9044 47.6597 11.9173C47.669 11.9301 47.6743 11.9476 47.6743 11.9657L47.6733 19.8236C47.6733 19.8418 47.6786 19.8592 47.6879 19.8721C47.6972 19.8849 47.7099 19.8921 47.7231 19.8921Z" fill="white"/>
<path id="Vector_39" d="M107.296 11.948C107.296 11.9321 107.301 11.917 107.309 11.9058C107.317 11.8946 107.328 11.8883 107.34 11.8883L114.61 11.9061C115.605 11.9084 116.589 12.1636 117.508 12.6571C118.426 13.1505 119.261 13.8726 119.963 14.7821C120.665 15.6916 121.222 16.7707 121.601 17.9578C121.98 19.1448 122.175 20.4166 122.173 21.7005L122.171 22.4822C122.168 25.0751 121.367 27.56 119.944 29.3901C118.521 31.2203 116.593 32.2458 114.584 32.2411L107.314 32.2233C107.302 32.2233 107.291 32.2171 107.283 32.2059C107.275 32.1947 107.271 32.1795 107.271 32.1637L107.296 11.948ZM110.708 15.7919L110.725 28.3198C110.725 28.3314 110.729 28.3423 110.735 28.3504C110.741 28.3584 110.749 28.3629 110.757 28.3629L114.208 28.3553C115.404 28.3522 116.549 27.7205 117.393 26.5991C118.237 25.4777 118.71 23.9585 118.708 22.3756V21.6954C118.707 20.9116 118.589 20.1358 118.361 19.4122C118.134 18.6887 117.801 18.0316 117.382 17.4784C116.962 16.9253 116.465 16.4869 115.917 16.1884C115.37 15.8899 114.783 15.737 114.191 15.7386L110.741 15.7475C110.732 15.7475 110.724 15.7521 110.718 15.7605C110.712 15.7688 110.708 15.7801 110.708 15.7919Z" fill="white"/>
<path id="Vector_40" d="M128.231 28.4581H136.203C136.215 28.4581 136.227 28.4648 136.236 28.4767C136.244 28.4886 136.249 28.5047 136.249 28.5216L136.246 32.2018C136.246 32.2186 136.241 32.2347 136.232 32.2466C136.223 32.2585 136.212 32.2652 136.199 32.2652H124.819C124.807 32.2652 124.795 32.2585 124.787 32.2466C124.778 32.2347 124.773 32.2186 124.773 32.2018V11.9607C124.773 11.9438 124.778 11.9277 124.787 11.9158C124.795 11.9039 124.807 11.8972 124.819 11.8972H135.926C135.938 11.8972 135.95 11.9039 135.958 11.9158C135.967 11.9277 135.972 11.9438 135.972 11.9607V15.5774C135.972 15.5942 135.967 15.6104 135.958 15.6223C135.95 15.6342 135.938 15.6409 135.926 15.6409H128.228C128.216 15.6409 128.204 15.6475 128.195 15.6594C128.187 15.6713 128.182 15.6875 128.182 15.7043L128.184 20.019C128.184 20.0359 128.188 20.052 128.197 20.0639C128.206 20.0758 128.217 20.0825 128.23 20.0825H135.004C135.016 20.0825 135.028 20.0892 135.037 20.1011C135.045 20.113 135.05 20.1291 135.05 20.1459V23.6992C135.05 23.7161 135.045 23.7322 135.037 23.7441C135.028 23.756 135.016 23.7627 135.004 23.7627H128.227C128.215 23.7627 128.203 23.7694 128.194 23.7813C128.186 23.7932 128.181 23.8093 128.181 23.8261L128.185 28.3947C128.185 28.4115 128.189 28.4276 128.198 28.4395C128.207 28.4514 128.218 28.4581 128.231 28.4581Z" fill="white"/>
<path id="Vector_41" d="M85.809 16.8147V13.1663C85.809 13.1494 85.8139 13.1333 85.8225 13.1214C85.8312 13.1095 85.8429 13.1028 85.8551 13.1028H89.0349C89.081 13.1028 89.1041 13.1345 89.1041 13.198V16.8147C89.1041 16.84 89.1113 16.8642 89.1243 16.882C89.1373 16.8999 89.1549 16.9099 89.1732 16.9099H91.8922C91.9229 16.9099 91.9383 16.9311 91.9383 16.9734V20.368C91.9383 20.3849 91.9334 20.401 91.9248 20.4129C91.9161 20.4248 91.9044 20.4315 91.8922 20.4315H89.1502C89.1443 20.4315 89.1386 20.4331 89.1332 20.4362C89.1279 20.4393 89.123 20.4439 89.1189 20.4497C89.1148 20.4555 89.1115 20.4623 89.1093 20.4699C89.1071 20.4774 89.1059 20.4855 89.1059 20.4937C89.101 22.6104 89.1028 24.736 89.1114 26.8706C89.1197 29.0432 90.7622 29.2893 91.8138 28.3452C91.8446 28.3181 91.8667 28.3283 91.8802 28.3756L92.7263 31.4404C92.7319 31.4604 92.7321 31.4825 92.7266 31.5027C92.7212 31.5228 92.7106 31.5394 92.6968 31.5495C92.4664 31.7183 92.2452 31.9213 92 32.0317C89.3124 33.2424 85.8772 32.1485 85.8358 27.3706C85.8155 25.077 85.8057 22.7847 85.8063 20.4937C85.8063 20.4855 85.8051 20.4774 85.8028 20.4699C85.8006 20.4623 85.7972 20.4555 85.793 20.4497C85.7888 20.4439 85.7839 20.4393 85.7784 20.4362C85.7729 20.4331 85.767 20.4315 85.7611 20.4315H84.1039C84.0917 20.4315 84.08 20.4248 84.0713 20.4129C84.0627 20.401 84.0578 20.3849 84.0578 20.368V16.9734C84.0578 16.9311 84.0732 16.9099 84.1039 16.9099H85.7399C85.786 16.9099 85.809 16.8782 85.809 16.8147Z" fill="white"/>
<path id="Vector_42" d="M68.097 30.3896C68.0971 30.384 68.0959 30.3786 68.0935 30.3741C68.0911 30.3696 68.0877 30.3663 68.0838 30.3647C68.0799 30.3631 68.0758 30.3633 68.072 30.3653C68.0682 30.3673 68.065 30.3709 68.0629 30.3756C67.5345 31.4052 66.8134 32.0457 65.8997 32.297C64.2093 32.7614 62.0498 32.3985 60.9622 30.302C60.4915 29.3942 60.3029 28.3621 60.3963 27.2056C60.788 22.3363 65.4241 23.0165 67.8316 23.0343C67.8361 23.0343 67.8406 23.033 67.8448 23.0307C67.849 23.0283 67.8528 23.0248 67.856 23.0204C67.8592 23.016 67.8617 23.0109 67.8633 23.0052C67.865 22.9995 67.8658 22.9934 67.8657 22.9873C67.8454 21.1129 67.026 20.1789 65.7393 20.014C64.3844 19.8397 63.1325 20.2965 61.9834 21.3845C61.9818 21.3862 61.9798 21.3874 61.9778 21.388C61.9757 21.3885 61.9735 21.3884 61.9714 21.3877C61.9693 21.387 61.9674 21.3856 61.9656 21.3838C61.9639 21.3819 61.9624 21.3796 61.9613 21.3769L60.8194 18.3185C60.8115 18.2969 60.8097 18.272 60.8143 18.2488C60.8189 18.2256 60.8296 18.2057 60.8442 18.1929C63.1319 16.1536 66.9928 15.5152 69.3579 17.6396C70.9293 19.0495 71.169 21.4277 71.1736 23.8173C71.1791 26.6125 71.1797 29.4078 71.1754 32.203C71.1754 32.2445 71.1604 32.2652 71.1303 32.2652H68.1458C68.1059 32.2652 68.0862 32.2377 68.0869 32.1827L68.097 30.3896ZM63.8443 26.5152C63.2849 27.5292 63.6729 28.7893 64.4785 29.1802C65.6361 29.7411 67.191 29.3185 67.767 27.6447C67.9523 27.1053 67.8878 26.3731 67.8795 25.7741C67.8789 25.7276 67.8617 25.7039 67.8279 25.703C67.018 25.6895 66.2085 25.6929 65.3992 25.7132C64.837 25.7284 64.2231 25.83 63.8443 26.5152Z" fill="white"/>
<path id="Vector_43" d="M74.0326 18.7145C75.6548 15.9924 78.866 16.0622 81.1536 16.7614C81.7754 16.9518 82.365 17.2479 82.9223 17.6497C82.9415 17.6637 82.9561 17.6872 82.9629 17.7154C82.9698 17.7435 82.9685 17.7741 82.9592 17.8008L81.9103 20.8744C81.9074 20.883 81.9032 20.8907 81.898 20.897C81.8929 20.9033 81.8868 20.908 81.8802 20.911C81.8737 20.914 81.8668 20.9151 81.8599 20.9142C81.853 20.9134 81.8463 20.9106 81.8403 20.9061C81.5674 20.7018 81.3001 20.4822 81.0117 20.349C79.9917 19.8769 78.916 19.7208 77.7848 19.8807C77.2447 19.9568 76.5415 20.3731 76.4972 21.2157C76.4447 22.198 77.6245 22.5482 78.23 22.6739C80.3084 23.1028 83.197 23.4505 83.3546 27.1802C83.4772 30.0837 81.7343 31.7538 79.8466 32.2436C77.6401 32.8173 75.0871 32.3909 73.1156 30.8553C73.1012 30.8442 73.0903 30.8261 73.0852 30.8047C73.0801 30.7833 73.0811 30.7601 73.0879 30.7398L74.1423 27.5964C74.1439 27.5915 74.1463 27.5871 74.1493 27.5835C74.1522 27.5799 74.1557 27.5772 74.1595 27.5755C74.1633 27.5738 74.1674 27.5733 74.1714 27.5738C74.1754 27.5743 74.1793 27.576 74.1829 27.5787C75.4523 28.5228 76.8011 29.0097 78.2291 29.0393C78.7609 29.0508 79.4743 28.9898 79.889 28.5025C80.2752 28.0495 80.3674 27.2513 79.8835 26.8452C79.6273 26.6294 79.2749 26.4729 78.8263 26.3756C76.6217 25.8959 73.3469 25.6535 73.3331 21.448C73.3294 20.415 73.5626 19.5038 74.0326 18.7145Z" fill="white"/>
<path id="Vector_44" d="M97.0251 33.7805C97.2155 33.5156 97.4039 33.1019 97.5901 32.5393C97.649 32.3617 97.6085 32.3046 97.5569 32.1409C95.947 26.9691 94.338 21.8016 92.73 16.6383C92.7274 16.6299 92.7264 16.6207 92.727 16.6116C92.7276 16.6025 92.7299 16.5938 92.7335 16.5861C92.7371 16.5785 92.7421 16.5722 92.7479 16.5678C92.7537 16.5634 92.7602 16.561 92.7669 16.5609H96.0361C96.0889 16.5609 96.1252 16.5943 96.1449 16.6612L99.2887 27.1688C99.2903 27.1743 99.293 27.1791 99.2965 27.1824C99.3 27.1858 99.3042 27.1876 99.3085 27.1876C99.3128 27.1876 99.317 27.1858 99.3206 27.1824C99.3241 27.1791 99.3268 27.1743 99.3284 27.1688L102.5 16.6358C102.515 16.5859 102.543 16.5609 102.583 16.5609H105.627C105.671 16.5609 105.684 16.5888 105.667 16.6447C103.872 22.5008 102.063 28.3536 100.239 34.203C99.8894 35.3249 99.3532 36.2593 98.6306 37.0063C97.0675 38.6206 94.2397 38.4289 92.7088 36.7614C92.6959 36.7475 92.6869 36.7278 92.6834 36.7056C92.6798 36.6833 92.682 36.66 92.6895 36.6396L93.848 33.5279C93.8512 33.5193 93.8559 33.5118 93.8615 33.506C93.8672 33.5002 93.8738 33.4962 93.8808 33.4944C93.8878 33.4926 93.895 33.4929 93.9019 33.4954C93.9089 33.4979 93.9153 33.5025 93.9208 33.5089C94.7513 34.4708 96.1937 34.934 97.0251 33.7805Z" fill="white"/>
<path id="Vector_45" d="M0.564074 21.019C0.617532 21.5 0.542875 21.915 0.517989 22.3122C0.417218 23.9662 0.384959 25.6231 0.421212 27.283C0.427664 27.5685 0.367754 27.8731 0.363146 28.1764C0.120742 25.9619 0.278351 23.9264 0.420291 21.7246C0.435038 21.4975 0.52905 21.2627 0.564074 21.019Z" fill="black"/>
<path id="Vector_46" d="M23.0735 22.9734C23.069 22.9715 23.0651 22.9674 23.0625 22.9619C23.0599 22.9565 23.0587 22.9499 23.0593 22.9434C23.0598 22.9369 23.062 22.9309 23.0655 22.9264C23.0689 22.9219 23.0734 22.9192 23.0781 22.9188C25.5999 22.4899 28.1234 21.9404 30.7613 21.4505C30.9211 21.4209 31.063 21.4086 31.1871 21.4137C31.216 21.4154 31.2381 21.4327 31.2535 21.4657C31.3229 21.6113 31.3026 21.7289 31.1926 21.8185C31.0138 21.9632 30.7426 22.1214 30.3788 22.2932C28.9311 22.9759 27.469 23.5931 25.9925 24.1447C25.9323 24.1675 25.8542 24.1612 25.7584 24.1256C24.8619 23.7957 23.9669 23.4116 23.0735 22.9734Z" fill="#E77A39"/>
<path id="Vector_47" d="M12.1432 41.1459C15.0662 38.4767 17.987 35.8054 20.9057 33.132C21.4716 32.6142 22.0295 32.0791 22.5795 31.5266C23.0237 31.0812 23.4376 29.1891 23.5943 28.4505C23.6698 28.0943 23.5893 27.8367 23.3528 27.6777C22.946 27.4044 22.5411 27.1079 22.138 26.7881C23.6274 26.1028 25.3495 25.2728 27.304 24.2982C27.8248 24.0393 29.1659 23.2449 29.7456 23.5799C29.7574 23.5868 29.7679 23.5975 29.7761 23.611C29.7844 23.6245 29.7902 23.6405 29.7931 23.6578C29.796 23.675 29.7958 23.6929 29.7927 23.71C29.7896 23.7272 29.7835 23.743 29.7751 23.7563C29.1926 24.681 28.6537 25.5888 28.1584 26.4797C28.0485 26.6785 27.9188 26.8439 27.7695 26.9759C26.2868 28.294 24.8023 29.6053 23.3159 30.9099C22.867 31.3033 22.4256 31.8718 21.9444 32.3033C21.5914 32.6206 21.2089 32.9962 20.8366 33.3376C18.0432 35.8959 15.2459 38.4463 12.4446 40.9886C12.3408 41.0825 12.2403 41.1349 12.1432 41.1459Z" fill="#E77A39"/>
<path id="Vector_48" d="M1.08576 32.25C1.12263 32.3515 1.12785 32.4598 1.10143 32.5749L1.05719 32.3947C1.05289 32.3185 1.06241 32.2703 1.08576 32.25Z" fill="#232A3A"/>
<path id="Vector_49" d="M27.0054 47.0926C26.901 47.2593 26.7372 47.3431 26.5142 47.3439C26.3255 47.3989 26.1698 47.522 26.0469 47.7132L25.4588 48.0025C25.5479 47.8841 25.6604 47.7978 25.7962 47.7437C25.8048 47.7403 25.8051 47.7352 25.7971 47.7284C25.7922 47.7234 25.7882 47.7212 25.7851 47.7221C25.5713 47.805 25.3556 47.8824 25.1381 47.9543C25.0852 47.9721 25.0794 47.9564 25.1206 47.9074C25.2859 47.7119 25.4776 47.5956 25.6957 47.5584C25.7271 47.5533 25.7559 47.5389 25.7824 47.5152C26.1406 47.1921 26.5483 47.0512 27.0054 47.0926Z" fill="black"/>
<path id="Vector_50" d="M26.5142 47.3439C26.3513 47.6544 26.1956 47.7775 26.0469 47.7132C26.1698 47.522 26.3255 47.3989 26.5142 47.3439Z" fill="#232A3A"/>
</g>
<defs>
<clipPath id="clip0_7_443">
<rect width="153" height="50" fill="white"/>
</clipPath>
</defs>
</svg>
