<svg width="137" height="37" viewBox="0 0 137 37" fill="none" xmlns="http://www.w3.org/2000/svg">
<g id="Social Links">
<g id="Group 3148">
<g id="Twitter">
<path id="Oval 10 Copy" opacity="0.1" fill-rule="evenodd" clip-rule="evenodd" d="M118.5 36C128.165 36 136 28.165 136 18.5C136 8.83502 128.165 1 118.5 1C108.835 1 101 8.83502 101 18.5C101 28.165 108.835 36 118.5 36Z" stroke="#0A142F" stroke-width="1.5"/>
<path id="ic Twitter" d="M124.22 15.2647C124.139 15.1729 124.008 15.1498 123.901 15.2064C123.834 15.2416 123.708 15.2878 123.559 15.3334C123.747 15.0762 123.899 14.7882 123.965 14.5293C123.994 14.4177 123.952 14.3001 123.86 14.2336C123.768 14.1677 123.646 14.1677 123.554 14.2336C123.409 14.3375 122.71 14.6497 122.268 14.7508C121.27 13.8511 120.107 13.7577 118.899 14.4831C117.917 15.0729 117.703 16.2721 117.745 17.0031C115.497 16.7805 114.1 15.5593 113.313 14.5485C113.258 14.4776 113.169 14.4403 113.086 14.4458C112.999 14.4524 112.919 14.5024 112.875 14.5799C112.503 15.2257 112.4 15.9396 112.577 16.6447C112.675 17.0295 112.845 17.3686 113.042 17.6434C112.947 17.5956 112.856 17.5357 112.77 17.4642C112.691 17.3972 112.58 17.3845 112.487 17.429C112.394 17.4747 112.334 17.5714 112.334 17.6775C112.334 18.8882 113.071 19.6962 113.758 20.1183C113.647 20.1045 113.531 20.0792 113.414 20.0424C113.314 20.0111 113.205 20.0424 113.135 20.1238C113.066 20.2046 113.049 20.32 113.093 20.4184C113.479 21.2972 114.211 21.9017 115.117 22.121C114.326 22.5986 113.267 22.8328 112.298 22.7179C112.172 22.6998 112.053 22.7817 112.013 22.9059C111.974 23.0301 112.025 23.1664 112.136 23.2301C113.607 24.0793 114.936 24.3827 116.085 24.3827C117.757 24.3827 119.047 23.7407 119.833 23.2038C121.95 21.7583 123.27 19.163 123.086 16.841C123.426 16.5832 123.933 16.1072 124.248 15.5955C124.313 15.4922 124.301 15.3559 124.22 15.2647Z" fill="#0A142F"/>
</g>
<g id="facebook">
<path id="Oval 10" opacity="0.1" fill-rule="evenodd" clip-rule="evenodd" d="M68.5 36C78.165 36 86 28.165 86 18.5C86 8.83502 78.165 1 68.5 1C58.835 1 51 8.83502 51 18.5C51 28.165 58.835 36 68.5 36Z" stroke="#0A142F" stroke-width="1.5"/>
<path id="ic Facebook" d="M70.0933 14.0206H71.7017C71.8497 14.0206 71.9698 13.9074 71.9698 13.768V12.2524C71.9698 12.113 71.8497 11.9998 71.7017 11.9998H70.0933C68.4678 11.9998 67.1446 13.2461 67.1446 14.7784V16.5466H65.2682C65.1202 16.5466 65.0001 16.6597 65.0001 16.7992V18.3148C65.0001 18.4542 65.1202 18.5674 65.2682 18.5674H67.1446V23.8719C67.1446 24.0114 67.2647 24.1245 67.4127 24.1245H69.0211C69.169 24.1245 69.2891 24.0114 69.2891 23.8719V18.5674H71.1656C71.2808 18.5674 71.3832 18.4976 71.4202 18.3946L71.9564 16.879C71.9837 16.8022 71.9698 16.7173 71.9194 16.6512C71.8684 16.5855 71.788 16.5466 71.7017 16.5466H69.2891V14.7784C69.2891 14.3606 69.6499 14.0206 70.0933 14.0206Z" fill="#0A142F"/>
</g>
<g id="Linkedin">
<path id="Oval 10 Copy 3" opacity="0.1" fill-rule="evenodd" clip-rule="evenodd" d="M18.5 36C28.165 36 36 28.165 36 18.5C36 8.83502 28.165 1 18.5 1C8.83502 1 1 8.83502 1 18.5C1 28.165 8.83502 36 18.5 36Z" stroke="#0A142F" stroke-width="1.5"/>
<g id="ic Linkedin">
<path id="Oval" d="M14.4837 14.9671C15.303 14.9671 15.9672 14.3029 15.9672 13.4835C15.9672 12.6642 15.303 12 14.4837 12C13.6643 12 13.0001 12.6642 13.0001 13.4835C13.0001 14.3029 13.6643 14.9671 14.4837 14.9671Z" fill="#0A142F"/>
<path id="Shape" d="M15.7198 15.9581H13.2473C13.1108 15.9581 13 16.0689 13 16.2054V23.6231C13 23.7596 13.1108 23.8704 13.2473 23.8704H15.7198C15.8563 23.8704 15.9671 23.7596 15.9671 23.6231V16.2054C15.9671 16.0689 15.8563 15.9581 15.7198 15.9581Z" fill="#0A142F"/>
<path id="Shape_2" d="M23.0882 15.5468C22.0314 15.1848 20.7095 15.5028 19.9168 16.0729C19.8896 15.9666 19.7927 15.8875 19.6775 15.8875H17.2049C17.0684 15.8875 16.9576 15.9983 16.9576 16.1347V23.5525C16.9576 23.689 17.0684 23.7998 17.2049 23.7998H19.6775C19.814 23.7998 19.9247 23.689 19.9247 23.5525V18.2216C20.3243 17.8774 20.8391 17.7676 21.2604 17.9467C21.6689 18.1192 21.9028 18.5406 21.9028 19.1018V23.5525C21.9028 23.689 22.0136 23.7998 22.1501 23.7998H24.6227C24.7591 23.7998 24.8699 23.689 24.8699 23.5525V18.6039C24.8417 16.5719 23.8858 15.8197 23.0882 15.5468Z" fill="#0A142F"/>
</g>
</g>
</g>
</g>
</svg>
